<svg width="135" height="40" viewBox="0 0 135 40" fill="none" xmlns="http://www.w3.org/2000/svg">
<g clip-path="url(#clip0)">
<path d="M75.1372 12.4884C70.9817 0.671019 59.1888 0.0372826 57.9908 3.94089e-06C52.7121 -0.111832 46.8718 1.71482 42.4168 6.03915C40.6198 7.64213 39.3469 9.50606 37.9991 11.4818C36.6514 9.46878 35.3785 7.64213 33.5815 6.03915C29.1639 1.71482 23.3236 -0.111832 18.0449 3.94089e-06C16.8094 0.0372826 5.0166 0.671019 0.898464 12.4884C-0.561602 16.7008 -0.224664 22.1808 1.94672 26.2069C4.1181 30.8295 9.32192 34.6319 14.8253 34.2591C18.7936 34.1473 23.1364 31.6496 24.7462 27.5862C26.094 23.9702 25.6822 20.0559 22.5748 16.9618C22.6497 17.7446 22.6872 18.863 21.901 19.8695C20.6655 21.5843 18.6813 22.0317 16.6223 21.2861C14.8253 20.466 14.1514 19.1612 14.3386 17.4464C14.4509 15.9925 15.6489 14.8742 16.8843 14.315C19.2803 13.2712 21.4891 13.7931 23.6605 15.8434C27.2171 19.795 27.6289 25.7596 29.3136 30.3076C30.5116 34.0354 32.3835 37.2787 36.5391 38.2106C37.0258 38.3225 37.5499 38.397 38.074 38.3597C38.5981 38.3597 39.1223 38.3225 39.609 38.2106C43.7645 37.2787 45.6364 34.0354 46.8344 30.3076C48.5191 25.7596 48.9309 19.795 52.45 15.8434C54.6214 13.7931 56.8302 13.2712 59.2262 14.315C60.4617 14.8742 61.6223 15.9925 61.772 17.4464C61.9592 19.1612 61.2853 20.466 59.4883 21.2861C57.4292 22.0317 55.4825 21.5843 54.2096 19.8695C53.4234 18.863 53.4609 17.7446 53.5357 16.9618C50.4284 20.0559 50.0166 23.9702 51.3644 27.5862C52.9742 31.6496 57.3169 34.1473 61.2853 34.2591C66.7512 34.6319 71.955 30.8667 74.1264 26.2069C76.2604 22.1808 76.5973 16.7008 75.1372 12.4884ZM66.7886 26.5797C64.2803 28.7791 60.9484 29.4129 58.2529 28.1827C56.6431 27.3998 55.4451 26.0205 55.0707 24.5294C57.3544 26.8034 61.4725 27.9217 65.2163 23.9702C65.2163 23.9702 68.7354 20.7269 66.7512 14.576C65.7404 11.5191 62.0341 9.02144 58.9268 8.68593C54.2845 7.94036 49.9417 9.50606 46.9093 13.7186C43.3527 19.1985 42.9035 25.3122 40.2828 31.4259C39.8336 32.4324 38.9351 32.8798 37.9991 32.8425C37.0632 32.8798 36.1647 32.4324 35.7154 31.4259C33.1322 25.3495 32.7204 19.2731 29.1264 13.7558C26.094 9.54334 21.7138 7.97764 17.1089 8.72321C14.0016 9.02144 10.2579 11.5564 9.28449 14.6132C7.30029 20.7642 10.8194 24.0075 10.8194 24.0075C14.6006 27.959 18.6813 26.8034 20.965 24.5666C20.5906 26.0578 19.4301 27.4371 17.7828 28.2199C15.0873 29.4501 11.7179 28.7791 9.20961 26.617C5.50329 22.9637 4.94173 18.2665 6.40179 13.9422C8.16136 8.68593 13.5149 6.07643 17.7454 5.74092C22.762 5.29357 29.688 8.35042 32.4584 13.6067C33.0948 14.7996 34.4426 17.931 34.4426 17.931H37.9617H41.4808C41.4808 17.931 42.8286 14.7996 43.465 13.6067C46.2354 8.3877 53.1614 5.33085 58.178 5.74092C62.4084 6.07643 67.762 8.72321 69.5216 13.9422C71.0565 18.2293 70.495 22.9264 66.7886 26.5797Z" fill="#F9423A"/>
<path d="M110.403 15.4706C110.403 14.5387 110.066 13.6813 109.056 13.6813C108.045 13.6813 107.708 14.5387 107.708 15.4706V27.698C107.708 28.63 108.045 29.4501 109.056 29.4501C110.066 29.4501 110.403 28.5927 110.403 27.698V15.4706ZM116.843 27.3625C116.843 32.0596 113.174 34.11 109.056 34.11C104.937 34.11 101.268 32.0596 101.268 27.3625V15.8434C101.268 11.1463 104.937 9.09598 109.056 9.09598C113.174 9.09598 116.843 11.1463 116.843 15.8434V27.3625ZM94.0056 14.7623L101.044 33.0662H93.9682L89.9249 21.9944L88.9141 23.7465V33.0662H81.8384V1.45386H88.9141V11.2954L93.4815 1.45386H100.482L94.0056 14.7623ZM128.748 15.1724C128.748 14.2404 128.411 13.383 127.288 13.383C126.202 13.383 125.865 14.2032 125.865 15.1724V27.959C125.865 28.8909 126.202 29.7484 127.288 29.7484C128.373 29.7484 128.748 28.9282 128.748 27.959V23.7465H135V27.4744C135 32.2833 131.668 34.0727 127.026 34.0727C122.121 34.0727 119.126 31.9105 119.126 27.027V16.1416C119.126 11.9664 122.046 9.0587 127.026 9.0587C131.256 9.0587 135 10.7362 135 16.2162V18.1174H128.748V15.1724ZM121.223 35.452H132.941V40H121.223V35.452Z" fill="white"/>
</g>
<defs>
<clipPath id="clip0">
<rect width="135" height="40" fill="white"/>
</clipPath>
</defs>
</svg>
